<?xml version="1.0" encoding="UTF-8" standalone="no"?>
<svg
   xmlns:dc="http://purl.org/dc/elements/1.1/"
   xmlns:cc="http://creativecommons.org/ns#"
   xmlns:rdf="http://www.w3.org/1999/02/22-rdf-syntax-ns#"
   xmlns:svg="http://www.w3.org/2000/svg"
   xmlns="http://www.w3.org/2000/svg"
   xmlns:xlink="http://www.w3.org/1999/xlink"
   xmlns:sodipodi="http://sodipodi.sourceforge.net/DTD/sodipodi-0.dtd"
   xmlns:inkscape="http://www.inkscape.org/namespaces/inkscape"
   viewBox="0 0 110.60008 67.748376"
   version="1.1"
   id="svg68"
   sodipodi:docname="NodeJS.svg"
   width="110.60007"
   height="67.748375"
   inkscape:version="0.92.4 (5da689c313, 2019-01-14)">
  <metadata
     id="metadata72">
    <rdf:RDF>
      <cc:Work
         rdf:about="">
        <dc:format>image/svg+xml</dc:format>
        <dc:type
           rdf:resource="http://purl.org/dc/dcmitype/StillImage" />
      </cc:Work>
    </rdf:RDF>
  </metadata>
  <sodipodi:namedview
     pagecolor="#ffffff"
     bordercolor="#666666"
     borderopacity="1"
     objecttolerance="10"
     gridtolerance="10"
     guidetolerance="10"
     inkscape:pageopacity="0"
     inkscape:pageshadow="2"
     inkscape:window-width="1010"
     inkscape:window-height="480"
     id="namedview70"
     showgrid="false"
     inkscape:zoom="0.79113925"
     inkscape:cx="57.82818"
     inkscape:cy="33.927443"
     inkscape:window-x="0"
     inkscape:window-y="0"
     inkscape:window-maximized="0"
     inkscape:current-layer="svg68" />
  <defs
     id="defs38">
    <linearGradient
       id="b"
       x1="180.7"
       y1="80.699997"
       x2="142.60001"
       y2="158.39999"
       gradientUnits="userSpaceOnUse">
      <stop
         offset="0"
         stop-color="#3f873f"
         id="stop2" />
      <stop
         offset=".3"
         stop-color="#3f8b3d"
         id="stop4" />
      <stop
         offset=".6"
         stop-color="#3e9637"
         id="stop6" />
      <stop
         offset=".9"
         stop-color="#3da92e"
         id="stop8" />
      <stop
         offset="1"
         stop-color="#3dae2b"
         id="stop10" />
    </linearGradient>
    <linearGradient
       id="d"
       x1="157.2"
       y1="121.3"
       x2="264"
       y2="42.400002"
       gradientUnits="userSpaceOnUse">
      <stop
         offset=".1"
         stop-color="#3f873f"
         id="stop13" />
      <stop
         offset=".4"
         stop-color="#529f44"
         id="stop15" />
      <stop
         offset=".7"
         stop-color="#63b649"
         id="stop17" />
      <stop
         offset=".9"
         stop-color="#6abf4b"
         id="stop19" />
    </linearGradient>
    <linearGradient
       id="a"
       x1="114.6"
       y1="53.799999"
       x2="212"
       y2="53.799999"
       gradientUnits="userSpaceOnUse">
      <stop
         offset=".1"
         stop-color="#6abf4b"
         id="stop22" />
      <stop
         offset=".3"
         stop-color="#63b649"
         id="stop24" />
      <stop
         offset=".6"
         stop-color="#529f44"
         id="stop26" />
      <stop
         offset=".9"
         stop-color="#3f873f"
         id="stop28" />
    </linearGradient>
    <linearGradient
       id="e"
       x1="114.9"
       y1="115.7"
       x2="212.3"
       y2="115.7"
       xlink:href="#a" />
    <linearGradient
       id="f"
       x1="114.6"
       y1="143.39999"
       x2="212"
       y2="143.39999"
       xlink:href="#a" />
    <linearGradient
       id="g"
       x1="114.9"
       y1="156"
       x2="212.3"
       y2="156"
       xlink:href="#a" />
    <linearGradient
       id="h"
       x1="226.5"
       y1="78.400002"
       x2="166.39999"
       y2="201"
       xlink:href="#b" />
    <clipPath
       id="c"
       transform="translate(-.3)">
      <path
         d="m 166.1,62.6 a 5,5 0 0 0 -5,0 L 118.8,87 a 5,5 0 0 0 -2.5,4.4 V 140 a 5,5 0 0 0 2.5,4.4 l 42.1,24.3 a 5,5 0 0 0 5,0 l 42.2,-24.3 a 5,5 0 0 0 2.6,-4.4 V 91.3 a 5,5 0 0 0 -2.6,-4.4 z"
         id="path35"
         inkscape:connector-curvature="0"
         style="clip-rule:evenodd;fill:url(#b)" />
    </clipPath>
    <linearGradient
       inkscape:collect="always"
       xlink:href="#b"
       id="linearGradient74"
       gradientUnits="userSpaceOnUse"
       x1="180.7"
       y1="80.699997"
       x2="142.60001"
       y2="158.39999"
       gradientTransform="matrix(0.25,0,0,0.25,-0.07492689,-0.00162707)" />
    <linearGradient
       inkscape:collect="always"
       xlink:href="#a"
       id="linearGradient76"
       gradientUnits="userSpaceOnUse"
       x1="114.6"
       y1="53.799999"
       x2="212"
       y2="53.799999" />
  </defs>
  <path
     d="m 54.675073,67.748373 a 2.1,2.1 0 0 1 -1.05,-0.3 l -3.325,-1.975 c -0.5,-0.275 -0.25,-0.375 -0.1,-0.425 a 6.575,6.575 0 0 0 1.5,-0.7 0.25,0.25 0 0 1 0.25,0.025 l 2.55,1.5 a 0.325,0.325 0 0 0 0.325,0 l 10,-5.75 a 0.325,0.325 0 0 0 0.125,-0.25 v -11.55 a 0.325,0.325 0 0 0 -0.15,-0.25 l -10,-5.75 a 0.3,0.3 0 0 0 -0.275,0 l -10,5.75 a 0.325,0.325 0 0 0 -0.15,0.25 v 11.525 a 0.3,0.3 0 0 0 0.15,0.275 l 2.75,1.575 c 1.5,0.75 2.4,-0.125 2.4,-1 v -11.375 a 0.275,0.275 0 0 1 0.275,-0.3 h 1.25 a 0.275,0.275 0 0 1 0.3,0.3 v 11.375 c 0,2 -1.075,3.125 -2.95,3.125 -0.575,0 -1.025,0 -2.3,-0.625 l -2.625,-1.5 a 2.125,2.125 0 0 1 -1.05,-1.825 v -11.525 a 2.1,2.1 0 0 1 1.05,-1.825 l 10,-5.775 a 2.2,2.2 0 0 1 2.075,0 l 10,5.75 a 2.1,2.1 0 0 1 1.05,1.85 v 11.5 a 2.125,2.125 0 0 1 -1.025,1.825 l -10,5.775 a 2.1,2.1 0 0 1 -1.05,0.275 z"
     id="path40"
     inkscape:connector-curvature="0"
     style="fill:#679e63;stroke-width:0.25" />
  <path
     d="m 57.750073,59.798373 c -4.375,0 -5.3,-2 -5.3,-3.7 a 0.275,0.275 0 0 1 0.3,-0.275 h 1.3 a 0.275,0.275 0 0 1 0.275,0.25 c 0.2,1.3 0.775,1.975 3.425,1.975 2.1,0 3,-0.5 3,-1.6 0,-0.65 -0.25,-1.125 -3.525,-1.45 -2.75,-0.25 -4.425,-0.875 -4.425,-3.05 0,-2 1.7,-3.225 4.55,-3.225 3.2,0 4.775,1.125 5,3.5 a 0.275,0.275 0 0 1 -0.1,0.25 0.3,0.3 0 0 1 -0.2,0.075 h -1.3 a 0.275,0.275 0 0 1 -0.275,-0.25 c -0.325,-1.375 -1.075,-1.8 -3.125,-1.8 -2.3,0 -2.575,0.8 -2.575,1.4 0,0.725 0.325,0.925 3.425,1.35 3.1,0.425 4.525,0.975 4.525,3.125 0,2.15 -1.8,3.425 -5,3.425 z m 14.4,-12.1 a 1.925,1.925 0 1 1 -1.925,-1.925 1.925,1.925 0 0 1 1.925,1.925 z m -3.55,0 a 1.625,1.625 0 1 0 1.625,-1.6 1.625,1.625 0 0 0 -1.625,1.6 z m 0.9,-1.075 h 0.75 c 0.25,0 0.75,0 0.75,0.575 a 0.5,0.5 0 0 1 -0.4,0.525 c 0.275,0 0.3,0.225 0.35,0.5 a 2.125,2.125 0 0 0 0.1,0.575 h -0.45 l -0.075,-0.675 c -0.025,-0.125 -0.075,-0.2 -0.25,-0.2 h -0.35 v 0.875 h -0.425 z m 0.4,0.95 h 0.35 a 0.3,0.3 0 0 0 0.325,-0.3 c 0,-0.3 -0.2,-0.3 -0.325,-0.3 h -0.35 z"
     id="path42"
     inkscape:connector-curvature="0"
     style="fill:#679e63;stroke-width:0.25" />
  <path
     d="m 23.750073,22.623373 a 1.275,1.275 0 0 0 -0.65,-1.1 l -10.6,-6.1 a 1.275,1.275 0 0 0 -0.575,-0.15 h -0.125 a 1.3,1.3 0 0 0 -0.575,0.15 l -10.57499989,6.1 a 1.275,1.275 0 0 0 -0.650000004389,1.125 v 16.4 a 0.625,0.625 0 0 0 0.350000004389,0.55 0.625,0.625 0 0 0 0.625,0 l 6.29999999,-3.6 a 1.3,1.3 0 0 0 0.65,-1.125 v -7.625 a 1.275,1.275 0 0 1 0.625,-1.1 l 2.6999999,-1.575 a 1.275,1.275 0 0 1 0.625,-0.175 1.25,1.25 0 0 1 0.65,0.175 l 2.675,1.55 a 1.275,1.275 0 0 1 0.625,1.1 v 7.65 a 1.3,1.3 0 0 0 0.675,1.125 l 6.25,3.6 a 0.625,0.625 0 0 0 0.65,0 0.65,0.65 0 0 0 0.325,-0.55 z m 50.925,-22.55000007 a 0.65,0.65 0 0 0 -0.95,0.575 V 16.898373 a 0.45,0.45 0 0 1 -0.25,0.375 0.45,0.45 0 0 1 -0.425,0 l -2.65,-1.525 a 1.275,1.275 0 0 0 -1.25,0 l -10.65,6.125 a 1.25,1.25 0 0 0 -0.625,1.1 v 12.225 a 1.275,1.275 0 0 0 0.65,1.1 l 10.575,6.125 a 1.275,1.275 0 0 0 1.275,0 l 10.6,-6.125 a 1.275,1.275 0 0 0 0.65,-1.1 V 4.6983729 a 1.275,1.275 0 0 0 -0.675,-1.1 z m -1,31.10000007 a 0.325,0.325 0 0 1 -0.15,0.275 l -3.625,2.1 a 0.325,0.325 0 0 1 -0.325,0 l -3.625,-2.1 a 0.325,0.325 0 0 1 -0.175,-0.25 v -4.225 a 0.325,0.325 0 0 1 0.15,-0.25 l 3.65,-2.125 a 0.325,0.325 0 0 1 0.325,0 l 3.625,2.1 a 0.325,0.325 0 0 1 0.175,0.275 z m 36.274997,-4.3 a 1.275,1.275 0 0 0 0.65,-1.1 v -2.975 a 1.275,1.275 0 0 0 -0.65,-1.1 l -10.524997,-6.125 a 1.275,1.275 0 0 0 -1.275,0 l -10.6,6.125 a 1.25,1.25 0 0 0 -0.625,1.1 v 12.25 a 1.275,1.275 0 0 0 0.65,1.1 l 10.5,6 a 1.275,1.275 0 0 0 1.25,0 l 6.374997,-3.55 a 0.65,0.65 0 0 0 0,-1.125 l -10.649997,-6.1 a 0.65,0.65 0 0 1 -0.325,-0.55 v -3.825 a 0.625,0.625 0 0 1 0.325,-0.55 l 3.325,-1.925 a 0.625,0.625 0 0 1 0.625,0 l 3.324997,1.925 a 0.625,0.625 0 0 1 0.325,0.55 v 3 a 0.625,0.625 0 0 0 0.95,0.55 z"
     id="path44"
     inkscape:connector-curvature="0"
     style="fill:#333333;fill-rule:evenodd;stroke-width:0.25" />
  <path
     d="m 98.625073,26.298373 a 0.25,0.25 0 0 1 0.25,0 l 2.049997,1.175 a 0.25,0.25 0 0 1 0.125,0.2 v 2.35 a 0.25,0.25 0 0 1 -0.125,0.225 l -2.024997,1.175 a 0.25,0.25 0 0 1 -0.25,0 l -2.05,-1.175 a 0.25,0.25 0 0 1 -0.1,-0.225 v -2.35 a 0.25,0.25 0 0 1 0.1,-0.2 z"
     id="path46"
     inkscape:connector-curvature="0"
     style="fill:#679e63;fill-rule:evenodd;stroke-width:0.25" />
  <path
     d="m 41.450073,15.648373 a 1.25,1.25 0 0 0 -1.25,0 l -10.575,6.1 a 1.25,1.25 0 0 0 -0.625,1.1 v 12.15 a 1.25,1.25 0 0 0 0.625,1.1 l 10.525,6.075 a 1.25,1.25 0 0 0 1.25,0 l 10.55,-6.075 a 1.25,1.25 0 0 0 0.65,-1.1 v -12.175 a 1.25,1.25 0 0 0 -0.65,-1.1 z"
     id="path48"
     style="fill:url(#linearGradient74);fill-rule:evenodd;stroke-width:0.25"
     inkscape:connector-curvature="0" />
  <g
     clip-path="url(#c)"
     id="g66"
     transform="matrix(0.25,0,0,0.25,7.3105611e-5,-0.00162707)">
    <path
       d="m 160.6,62.6 -42.2,24.3 a 5.3,5.3 0 0 0 -2.7,4.4 V 140 a 4.9,4.9 0 0 0 1.3,3.2 l 47.4,-81.1 a 5.2,5.2 0 0 0 -3.8,0.5 z m 4.1,106.6 a 5,5 0 0 0 1.2,-0.5 L 208,144.4 a 5.2,5.2 0 0 0 2.7,-4.4 V 91.3 a 5,5 0 0 0 -1.5,-3.5 z"
       id="path50"
       inkscape:connector-curvature="0"
       style="fill:none" />
    <path
       d="M 208.3,87 166.1,62.6 a 5,5 0 0 0 -1.3,-0.5 l -47.5,81.1 a 6,6 0 0 0 1.4,1.2 l 42.4,24.3 a 5.2,5.2 0 0 0 3.9,0.5 l 44.5,-81.4 a 6,6 0 0 0 -1.2,-0.9 z"
       transform="translate(-0.3)"
       id="path52"
       style="fill:url(#d)"
       inkscape:connector-curvature="0" />
    <path
       d="M 210.7,140 V 91.3 A 5.2,5.2 0 0 0 208,87 L 165.8,62.7 a 5,5 0 0 0 -1.6,-0.6 l 46.3,79.1 a 4.5,4.5 0 0 0 0.2,-1.1 z M 118.4,86.9 a 5.3,5.3 0 0 0 -2.7,4.4 V 140 a 5.3,5.3 0 0 0 2.7,4.4 l 42.3,24.3 a 5.1,5.1 0 0 0 3.3,0.7 L 118.7,86.8 Z"
       id="path54"
       inkscape:connector-curvature="0"
       style="fill:none" />
    <path
       d="m 159.3,53.6 -0.6,0.4 h 0.8 z"
       id="path56"
       style="fill:url(#linearGradient76)"
       inkscape:connector-curvature="0" />
    <path
       d="m 208.3,144.4 a 5.3,5.3 0 0 0 2.5,-3.2 L 164.5,62 a 5.2,5.2 0 0 0 -3.6,0.6 l -41.9,24.2 45.3,82.6 a 5.2,5.2 0 0 0 1.9,-0.7 z"
       transform="translate(-0.3)"
       id="path58"
       style="fill:url(#e)"
       inkscape:connector-curvature="0" />
    <path
       d="m 212,143.6 -0.3,-0.5 v 0.7 z"
       id="path60"
       style="fill:url(#f)"
       inkscape:connector-curvature="0" />
    <path
       d="m 208.3,144.4 -42.1,24.3 a 5.2,5.2 0 0 1 -1.9,0.7 l 0.8,1.5 46.9,-27.1 v -0.7 l -1.2,-2 a 5.3,5.3 0 0 1 -2.5,3.3 z"
       transform="translate(-0.3)"
       id="path62"
       style="fill:url(#g)"
       inkscape:connector-curvature="0" />
    <path
       d="m 208.3,144.4 -42.1,24.3 a 5.2,5.2 0 0 1 -1.9,0.7 l 0.8,1.5 46.9,-27.1 v -0.7 l -1.2,-2 a 5.3,5.3 0 0 1 -2.5,3.3 z"
       transform="translate(-0.3)"
       id="path64"
       style="fill:url(#h)"
       inkscape:connector-curvature="0" />
  </g>
</svg>
